<svg xmlns="http://www.w3.org/2000/svg" xmlns:xlink="http://www.w3.org/1999/xlink" width="500" zoomAndPan="magnify" viewBox="0 0 375 374.999991" height="500" preserveAspectRatio="xMidYMid meet" version="1.2"><defs/><g id="d2dba50165"><g style="fill:#ffffff;fill-opacity:1;"><g transform="translate(49.186518, 257.362538)"><path style="stroke:none" d="M 69.546875 -49.109375 L 70.625 -49.109375 C 70.769531 -50.703125 71.164062 -53.378906 71.8125 -57.140625 C 72.46875 -60.910156 73.335938 -65.40625 74.421875 -70.625 C 75.515625 -75.84375 76.675781 -81.238281 77.90625 -86.8125 C 79.132812 -92.394531 80.257812 -97.789062 81.28125 -103 L 92.140625 -151.90625 L 137.34375 -151.90625 L 151.03125 -91.921875 C 152.625 -84.828125 153.960938 -77.296875 155.046875 -69.328125 C 156.140625 -61.359375 156.972656 -54.617188 157.546875 -49.109375 L 158.640625 -49.109375 C 158.929688 -52.441406 159.472656 -56.785156 160.265625 -62.140625 C 161.066406 -67.503906 161.9375 -72.832031 162.875 -78.125 C 163.8125 -83.414062 164.570312 -87.582031 165.15625 -90.625 L 172.546875 -123.65625 L 160.59375 -123.65625 L 160.59375 -151.90625 L 222.75 -151.90625 L 222.75 -123.65625 L 210.796875 -123.65625 L 178.40625 0 L 126.90625 0 L 113.875 -51.71875 C 112.851562 -55.488281 111.835938 -60.085938 110.828125 -65.515625 C 109.816406 -70.953125 109.019531 -75.335938 108.4375 -78.671875 L 107.5625 -78.671875 C 107.28125 -76.492188 106.8125 -73.738281 106.15625 -70.40625 C 105.5 -67.070312 104.84375 -63.738281 104.1875 -60.40625 C 103.539062 -57.082031 102.929688 -54.332031 102.359375 -52.15625 L 89.09375 0 L 38.6875 0 L 10 -123.65625 L -2.171875 -123.65625 L -2.171875 -151.90625 L 69.546875 -151.90625 L 69.546875 -123.65625 L 56.9375 -123.65625 L 62.59375 -91.921875 C 63.164062 -89.316406 63.8125 -85.945312 64.53125 -81.8125 C 65.257812 -77.6875 65.945312 -73.414062 66.59375 -69 C 67.25 -64.582031 67.867188 -60.5625 68.453125 -56.9375 C 69.035156 -53.3125 69.398438 -50.703125 69.546875 -49.109375 Z M 69.546875 -49.109375 "/></g></g><g style="fill:#ffffff;fill-opacity:1;"><g transform="translate(269.746292, 257.362538)"><path style="stroke:none" d="M 3.265625 -22.59375 C 3.265625 -26.363281 4.203125 -30.128906 6.078125 -33.890625 C 7.960938 -37.660156 10.753906 -40.847656 14.453125 -43.453125 C 18.148438 -46.066406 22.601562 -47.375 27.8125 -47.375 C 33.175781 -47.375 37.703125 -46.066406 41.390625 -43.453125 C 45.085938 -40.847656 47.914062 -37.660156 49.875 -33.890625 C 51.832031 -30.128906 52.8125 -26.363281 52.8125 -22.59375 C 52.8125 -16.082031 50.671875 -10.539062 46.390625 -5.96875 C 42.117188 -1.40625 35.925781 0.875 27.8125 0.875 C 23.03125 0.875 18.789062 -0.28125 15.09375 -2.59375 C 11.40625 -4.914062 8.507812 -7.890625 6.40625 -11.515625 C 4.3125 -15.140625 3.265625 -18.832031 3.265625 -22.59375 Z M 3.265625 -22.59375 "/></g></g></g></svg>
